<svg width="28" height="27" viewBox="0 0 28 27" fill="none" xmlns="http://www.w3.org/2000/svg">
<path d="M25.8125 13.5C25.8125 20.0239 20.5239 25.3125 14 25.3125C7.47614 25.3125 2.1875 20.0239 2.1875 13.5C2.1875 6.97614 7.47614 1.6875 14 1.6875C20.5239 1.6875 25.8125 6.97614 25.8125 13.5Z" fill="url(#paint0_linear_1843_9892)"/>
<path d="M22.8594 13.5C22.8594 18.3929 18.8929 22.3594 14 22.3594C9.1071 22.3594 5.14062 18.3929 5.14062 13.5C5.14062 8.6071 9.1071 4.64062 14 4.64062C18.8929 4.64062 22.8594 8.6071 22.8594 13.5Z" fill="url(#paint1_linear_1843_9892)"/>
<path d="M14 15.1875C14.932 15.1875 15.6875 14.432 15.6875 13.5C15.6875 12.568 14.932 11.8125 14 11.8125C13.068 11.8125 12.3125 12.568 12.3125 13.5C12.3125 14.432 13.068 15.1875 14 15.1875Z" fill="url(#paint2_linear_1843_9892)"/>
<path fill-rule="evenodd" clip-rule="evenodd" d="M14 19.4062C17.2619 19.4062 19.9062 16.7619 19.9062 13.5C19.9062 10.2381 17.2619 7.59375 14 7.59375C10.7381 7.59375 8.09375 10.2381 8.09375 13.5C8.09375 16.7619 10.7381 19.4062 14 19.4062ZM14 16.875C15.864 16.875 17.375 15.364 17.375 13.5C17.375 11.636 15.864 10.125 14 10.125C12.136 10.125 10.625 11.636 10.625 13.5C10.625 15.364 12.136 16.875 14 16.875Z" fill="url(#paint3_linear_1843_9892)"/>
<path fill-rule="evenodd" clip-rule="evenodd" d="M14 23.625C19.5919 23.625 24.125 19.0919 24.125 13.5C24.125 7.90812 19.5919 3.375 14 3.375C8.40812 3.375 3.875 7.90812 3.875 13.5C3.875 19.0919 8.40812 23.625 14 23.625ZM14 21.0938C18.1939 21.0938 21.5938 17.6939 21.5938 13.5C21.5938 9.30609 18.1939 5.90625 14 5.90625C9.80609 5.90625 6.40625 9.30609 6.40625 13.5C6.40625 17.6939 9.80609 21.0938 14 21.0938Z" fill="url(#paint4_linear_1843_9892)"/>
<path d="M13.8315 14.5549C13.4937 14.2171 13.4937 13.6693 13.8315 13.3315C14.1693 12.9937 14.7171 12.9937 15.0549 13.3315L21.1719 19.4485L19.9485 20.6719L13.8315 14.5549Z" fill="url(#paint5_linear_1843_9892)"/>
<path d="M20.8277 25.1608L19.0831 19.7303C19.0334 19.5756 19.0752 19.4064 19.1915 19.2915L19.8013 18.6898C19.9182 18.5745 20.0907 18.5334 20.248 18.5835L25.6598 20.3048C25.8678 20.371 25.8617 20.6634 25.6512 20.7211L22.5214 21.5788C22.4847 21.5888 22.4514 21.608 22.4245 21.6345L22.1772 21.8785C22.15 21.9054 22.1304 21.9388 22.1203 21.9755L21.2503 25.1518C21.193 25.3613 20.8942 25.3677 20.8277 25.1608Z" fill="url(#paint6_linear_1843_9892)"/>
<defs>
<linearGradient id="paint0_linear_1843_9892" x1="2.1875" y1="1.6875" x2="25.8125" y2="25.3125" gradientUnits="userSpaceOnUse">
<stop stop-color="#EFF2F6"/>
<stop offset="1" stop-color="#B7C6CD"/>
</linearGradient>
<linearGradient id="paint1_linear_1843_9892" x1="5.14063" y1="4.64063" x2="22.8594" y2="22.3594" gradientUnits="userSpaceOnUse">
<stop stop-color="white"/>
<stop offset="0.705" stop-color="#EAEFEF"/>
</linearGradient>
<linearGradient id="paint2_linear_1843_9892" x1="3.875" y1="3.375" x2="24.125" y2="23.625" gradientUnits="userSpaceOnUse">
<stop stop-color="#F15700"/>
<stop offset="1" stop-color="#FF0000"/>
</linearGradient>
<linearGradient id="paint3_linear_1843_9892" x1="3.875" y1="3.375" x2="24.125" y2="23.625" gradientUnits="userSpaceOnUse">
<stop stop-color="#F15700"/>
<stop offset="1" stop-color="#FF0000"/>
</linearGradient>
<linearGradient id="paint4_linear_1843_9892" x1="3.875" y1="3.375" x2="24.125" y2="23.625" gradientUnits="userSpaceOnUse">
<stop stop-color="#F15700"/>
<stop offset="1" stop-color="#FF0000"/>
</linearGradient>
<linearGradient id="paint5_linear_1843_9892" x1="17.9777" y1="16.0685" x2="16.6801" y2="17.3661" gradientUnits="userSpaceOnUse">
<stop offset="0.447203" stop-color="#71706E"/>
<stop offset="1" stop-color="#B9AA99"/>
</linearGradient>
<linearGradient id="paint6_linear_1843_9892" x1="23.2751" y1="19.3458" x2="18.6371" y2="22.1421" gradientUnits="userSpaceOnUse">
<stop offset="0.485976" stop-color="#2E2E41"/>
<stop offset="0.825955" stop-color="#566C80"/>
</linearGradient>
</defs>
</svg>
